<svg xmlns="http://www.w3.org/2000/svg" xmlns:xlink="http://www.w3.org/1999/xlink" width="191" height="159" viewBox="0 0 191 159">
  <defs>
    <style>
      .cls-1 {
        fill: url(#linear-gradient);
      }

      .cls-2 {
        fill: #040404;
      }

      .cls-3 {
        opacity: 0.5;
        fill: url(#linear-gradient-2);
      }

      .cls-4, .cls-5 {
        stroke: none;
      }

      .cls-5 {
        fill: #5d01ff;
      }

      .cls-6 {
        filter: url(#矩形_3033);
      }
    </style>
    <linearGradient id="linear-gradient" x1="0.825" y1="0.692" x2="0.798" y2="0.261" gradientUnits="objectBoundingBox">
      <stop offset="0"/>
      <stop offset="1" stop-color="#393939"/>
    </linearGradient>
    <linearGradient id="linear-gradient-2" x1="1" y1="1" x2="0" gradientUnits="objectBoundingBox">
      <stop offset="0" stop-opacity="0.729"/>
      <stop offset="0.502" stop-color="#626262" stop-opacity="0.522"/>
      <stop offset="0.535" stop-color="#fff" stop-opacity="0.455"/>
      <stop offset="1" stop-color="#fff" stop-opacity="0.188"/>
    </linearGradient>
    <filter id="矩形_3033" x="0" y="0" width="160.5" height="159" filterUnits="userSpaceOnUse">
      <feOffset dx="6" input="SourceAlpha"/>
      <feGaussianBlur stdDeviation="1.5" result="blur"/>
      <feFlood flood-opacity="0.8"/>
      <feComposite operator="in" in2="blur"/>
      <feComposite in="SourceGraphic"/>
    </filter>
  </defs>
  <g id="album-msk" transform="translate(0 4.5)">
    <path id="减去_3" data-name="减去 3" class="cls-1" d="M2249-2438.571v-124.857a67.964,67.964,0,0,1,16.583,10.229,68.3,68.3,0,0,1,12.963,14.416A67.678,67.678,0,0,1,2290-2501a67.679,67.679,0,0,1-11.453,37.783,68.306,68.306,0,0,1-12.963,14.417A67.956,67.956,0,0,1,2249-2438.572Z" transform="translate(-2099 2576)"/>
    <g id="减去_2" data-name="减去 2" class="cls-2" transform="translate(-2099 2576)">
      <path class="cls-4" d="M 2249.250244140625 -2480.10888671875 L 2249.250244140625 -2522.89111328125 C 2251.55419921875 -2520.0146484375 2253.365478515625 -2516.813720703125 2254.638671875 -2513.366455078125 C 2256.039794921875 -2509.5732421875 2256.750244140625 -2505.580810546875 2256.750244140625 -2501.499755859375 C 2256.750244140625 -2497.418701171875 2256.039794921875 -2493.426513671875 2254.638671875 -2489.633544921875 C 2253.36572265625 -2486.186279296875 2251.55419921875 -2482.9853515625 2249.250244140625 -2480.10888671875 Z"/>
      <path class="cls-5" d="M 2249.500244140625 -2480.8330078125 C 2251.57666015625 -2483.539794921875 2253.2236328125 -2486.5234375 2254.404296875 -2489.72021484375 C 2255.795166015625 -2493.485107421875 2256.500244140625 -2497.448486328125 2256.500244140625 -2501.499755859375 C 2256.500244140625 -2505.55126953125 2255.795166015625 -2509.5146484375 2254.404296875 -2513.27978515625 C 2253.223388671875 -2516.4765625 2251.576416015625 -2519.460205078125 2249.500244140625 -2522.1669921875 L 2249.500244140625 -2480.8330078125 M 2249.000244140625 -2479.408203125 L 2249.000244140625 -2479.410888671875 L 2249.000244140625 -2523.591796875 C 2251.534423828125 -2520.554931640625 2253.510009765625 -2517.143798828125 2254.873291015625 -2513.453125 C 2256.28466796875 -2509.632080078125 2257.000244140625 -2505.6103515625 2257.000244140625 -2501.499755859375 C 2257.000244140625 -2497.38916015625 2256.28466796875 -2493.36767578125 2254.873291015625 -2489.546875 C 2253.510009765625 -2485.855712890625 2251.534423828125 -2482.4453125 2249.001953125 -2479.41015625 L 2249.000244140625 -2479.408203125 Z"/>
    </g>
    <g class="cls-6" transform="matrix(1, 0, 0, 1, 0, -4.5)">
      <rect id="矩形_3033-2" data-name="矩形 3033" class="cls-3" width="150" height="150" rx="2" transform="translate(0 4.5)"/>
    </g>
  </g>
</svg>
