<svg xmlns="http://www.w3.org/2000/svg" xmlns:xlink="http://www.w3.org/1999/xlink" width="136" height="136" viewBox="0 0 136 136">
  <defs>
    <style>
      .cls-1 {
        fill: url(#linear-gradient);
      }

      .cls-2 {
        fill: #040404;
      }

      .cls-3, .cls-4 {
        stroke: none;
      }

      .cls-4 {
        fill: #5d01ff;
      }
    </style>
    <linearGradient id="linear-gradient" x1="0.825" y1="0.692" x2="0.798" y2="0.261" gradientUnits="objectBoundingBox">
      <stop offset="0"/>
      <stop offset="1" stop-color="#393939"/>
    </linearGradient>
  </defs>
  <g id="album-side" transform="translate(-55 -7)">
    <circle id="椭圆_24" data-name="椭圆 24" class="cls-1" cx="68" cy="68" r="68" transform="translate(55 7)"/>
    <g id="路径_80" data-name="路径 80" class="cls-2" transform="translate(89 40)">
      <path class="cls-3" d="M 34.5 68.75 C 29.87616920471191 68.75 25.39077949523926 67.84446716308594 21.16843032836914 66.05857086181641 C 17.09000015258789 64.33354187011719 13.42714023590088 61.86394882202148 10.28159046173096 58.71841049194336 C 7.136050224304199 55.57286834716797 4.666470050811768 51.91001129150391 2.94143009185791 47.83156967163086 C 1.155529975891113 43.60921859741211 0.25 39.12382888793945 0.25 34.5 C 0.25 29.87616920471191 1.155529975891113 25.39077949523926 2.94143009185791 21.16843032836914 C 4.666470050811768 17.09000015258789 7.136050224304199 13.42714023590088 10.28159046173096 10.28159046173096 C 13.42714023590088 7.136050224304199 17.09000015258789 4.666470050811768 21.16843032836914 2.94143009185791 C 25.39077949523926 1.155529975891113 29.87616920471191 0.25 34.5 0.25 C 39.12382888793945 0.25 43.60921859741211 1.155529975891113 47.83156967163086 2.94143009185791 C 51.91001129150391 4.666470050811768 55.57286834716797 7.136050224304199 58.71841049194336 10.28159046173096 C 61.86394882202148 13.42714023590088 64.33354187011719 17.09000015258789 66.05857086181641 21.16843032836914 C 67.84446716308594 25.39077949523926 68.75 29.87616920471191 68.75 34.5 C 68.75 39.12382888793945 67.84446716308594 43.60921859741211 66.05857086181641 47.83156967163086 C 64.33354187011719 51.91001129150391 61.86394882202148 55.57286834716797 58.71841049194336 58.71841049194336 C 55.57286834716797 61.86394882202148 51.91001129150391 64.33354187011719 47.83156967163086 66.05857086181641 C 43.60921859741211 67.84446716308594 39.12382888793945 68.75 34.5 68.75 Z"/>
      <path class="cls-4" d="M 34.5 0.5 C 29.90980911254883 0.5 25.45718002319336 1.398880004882813 21.26581954956055 3.171676635742188 C 17.21717834472656 4.884109497070313 13.58103179931641 7.335708618164063 10.45837020874023 10.45837020874023 C 7.335708618164063 13.58103179931641 4.884109497070313 17.21717834472656 3.171676635742188 21.26581954956055 C 1.398880004882813 25.45718002319336 0.5 29.90980911254883 0.5 34.5 C 0.5 39.09019088745117 1.398880004882813 43.54280853271484 3.171676635742188 47.73418045043945 C 4.884109497070313 51.78282165527344 7.335708618164063 55.41896820068359 10.45837020874023 58.54162979125977 C 13.58103179931641 61.66429138183594 17.21717834472656 64.11589050292969 21.26581954956055 65.82832336425781 C 25.45718002319336 67.60111999511719 29.90980911254883 68.5 34.5 68.5 C 39.09019088745117 68.5 43.54280853271484 67.60111999511719 47.73418045043945 65.82832336425781 C 51.78282165527344 64.11589050292969 55.41896820068359 61.66429138183594 58.54162979125977 58.54162979125977 C 61.66429138183594 55.41896820068359 64.11589050292969 51.78282165527344 65.82832336425781 47.73418045043945 C 67.60111999511719 43.54280853271484 68.5 39.09019088745117 68.5 34.5 C 68.5 29.90980911254883 67.60111999511719 25.45718002319336 65.82832336425781 21.26581954956055 C 64.11589050292969 17.21717834472656 61.66429138183594 13.58103179931641 58.54162979125977 10.45837020874023 C 55.41896820068359 7.335708618164063 51.78282165527344 4.884109497070313 47.73418045043945 3.171676635742188 C 43.54280853271484 1.398880004882813 39.09019088745117 0.5 34.5 0.5 M 34.5 0 C 53.55381774902344 0 69 15.44617080688477 69 34.5 C 69 53.55381774902344 53.55381774902344 69 34.5 69 C 15.44617080688477 69 0 53.55381774902344 0 34.5 C 0 15.44617080688477 15.44617080688477 0 34.5 0 Z"/>
    </g>
  </g>
</svg>
