<svg xmlns="http://www.w3.org/2000/svg" width="10.707" height="16.061" viewBox="0 0 10.707 16.061">
  <defs>
    <style>
      .cls-1 {
        fill: #fff;
      }

      .cls-2 {
        fill: none;
        stroke: #fff;
      }

      .cls-3 {
        opacity: 0.5;
      }
    </style>
  </defs>
  <g id="组_21" data-name="组 21" transform="translate(-945.146 -890.793)">
    <g id="组_1" data-name="组 1">
      <rect id="矩形_3029" data-name="矩形 3029" class="cls-1" width="1" height="1" transform="translate(950.5 890.793) rotate(45)"/>
      <path id="路径_862" data-name="路径 862" class="cls-2" d="M5,0,3.438,1.563,0,5" transform="translate(945.5 891.5)"/>
      <path id="路径_863" data-name="路径 863" class="cls-2" d="M5,0,3.438,1.563,0,5" transform="translate(955.5 891.5) rotate(90)"/>
    </g>
    <g id="组_2" data-name="组 2" class="cls-3" transform="translate(0 5)">
      <rect id="矩形_3029-2" data-name="矩形 3029" class="cls-1" width="1" height="1" transform="translate(950.5 890.793) rotate(45)"/>
      <path id="路径_862-2" data-name="路径 862" class="cls-2" d="M5,0,3.438,1.563,0,5" transform="translate(945.5 891.5)"/>
      <path id="路径_863-2" data-name="路径 863" class="cls-2" d="M5,0,3.438,1.563,0,5" transform="translate(955.5 891.5) rotate(90)"/>
    </g>
    <g id="组_3" data-name="组 3" class="cls-3" transform="translate(0 10)">
      <rect id="矩形_3029-3" data-name="矩形 3029" class="cls-1" width="1" height="1" transform="translate(950.5 890.793) rotate(45)"/>
      <path id="路径_862-3" data-name="路径 862" class="cls-2" d="M5,0,3.438,1.563,0,5" transform="translate(945.5 891.5)"/>
      <path id="路径_863-3" data-name="路径 863" class="cls-2" d="M5,0,3.438,1.563,0,5" transform="translate(955.5 891.5) rotate(90)"/>
    </g>
  </g>
</svg>
